<?xml version="1.0" ?><svg enable-background="new 0 0 219.823 56.283" id="Layer_1" version="1.1" viewBox="0 0 219.823 56.283" xml:space="preserve" xmlns="http://www.w3.org/2000/svg" xmlns:xlink="http://www.w3.org/1999/xlink"><g><g><path d="M65.245,35.535c0,3.453-1.497,6.248-4.983,6.248c-3.489,0-4.996-2.795-4.996-6.248V23.731h-6.364v11.804    c0,6.824,4.43,12.353,11.324,12.353c6.887,0,11.384-5.528,11.384-12.353V23.717h-6.379L65.245,35.535z" fill="#2BA9E0"/></g><g><rect fill="#2BA9E0" height="30.76" width="6.344" x="129.118" y="16.519"/></g><g><polygon fill="#2BA9E0" points="140.147,17.654 141.957,17.654 141.957,22.526 143.286,22.526 143.286,17.654 145.094,17.654     145.094,16.549 140.147,16.549   "/></g><g><polygon fill="#2BA9E0" points="150.418,16.549 149.083,20.66 149.066,20.66 147.655,16.549 145.788,16.549 145.788,22.526     147.029,22.526 147.029,18.332 147.045,18.332 148.522,22.526 149.549,22.526 151.028,18.287 151.042,18.287 151.042,22.526     152.286,22.526 152.286,16.549   "/></g><g><path d="M34.652,27.883c-0.069,0.141-0.071,0.221-0.315,0.219c-0.199-0.008-0.223-0.219-0.223-0.219l-0.678-4.117    h-5.685v23.495h6.371V34.543c0-1.041,2.827-6.021,8.303-4.744c2.767,0.652,3.941,1.816,3.941,1.816s0-4.537,0-7.156    c-1.025-0.53-1.728-0.787-2.651-0.998C38.248,22.211,34.797,27.591,34.652,27.883z" fill="#2BA9E0"/></g><g><path d="M86.429,23.273c-6.935,0-12.558,5.568-12.558,12.438c0,0,0,17.003,0,19.287h6.388v-8.454l0.004-3.167    c0,0,0.009-0.251,0.24-0.257c0.205,0,0.25,0.136,0.302,0.257c0.482,1.192,3.142,5.729,9.039,4.306    c5.278-1.474,9.147-6.272,9.147-11.972C98.99,28.841,93.368,23.273,86.429,23.273z M86.436,42.006    c-3.514,0-6.356-2.816-6.356-6.295c0-3.475,2.842-6.297,6.356-6.297c3.512,0,6.358,2.822,6.358,6.297    C92.795,39.19,89.949,42.006,86.436,42.006z" fill="#2BA9E0"/></g><g><path d="M113.98,23.273c-6.938,0-12.562,5.568-12.562,12.438c0,5.699,3.871,10.498,9.152,11.972    c5.897,1.424,8.555-3.113,9.035-4.306c0.053-0.121,0.098-0.257,0.304-0.257c0.231,0.006,0.239,0.257,0.239,0.257l0.005,3.892    h6.389V35.711C126.541,28.841,120.919,23.273,113.98,23.273z M113.977,42.006c-3.513,0-6.36-2.816-6.36-6.295    c0-3.475,2.848-6.297,6.36-6.297c3.509,0,6.356,2.822,6.356,6.297C120.333,39.19,117.486,42.006,113.977,42.006z" fill="#2BA9E0"/></g><g><path d="M8.319,16.504H0.542v30.717h7.249c9.521,0,17.089-1.842,17.089-15.358    C24.879,18.217,17.736,16.504,8.319,16.504z M9.589,41.958l-2.631-0.067v-20.06h2.563c5.871,0,8.939,0.814,8.939,10.031    C18.46,41.471,14.987,41.958,9.589,41.958z" fill="#2BA9E0"/></g></g><g><g><circle cx="196.663" cy="36.832" fill="#2BA9E0" r="7.294"/></g><g><path d="M205.731,28.146c2.162,2.257,3.494,5.314,3.494,8.686c0,4.27-2.133,8.039-5.389,10.309    c6.018-1.855,10.994-6.377,13.223-11.854c3.082-7.576,0.213-13.279-4.604-18.449c0.146,0.669,0.229,1.362,0.229,2.076    C212.684,23.297,209.745,26.994,205.731,28.146z" fill="#2BA9E0"/></g><g><circle cx="203.075" cy="18.912" fill="#2BA9E0" r="5.58"/></g><g><path d="M187.052,44.921c-1.843-2.186-2.954-5.007-2.954-8.09c0-6.431,4.834-11.729,11.064-12.47    c-1.068-1.549-1.697-3.426-1.697-5.449c0-5.307,4.303-9.608,9.61-9.608c0.438,0,0.868,0.031,1.29,0.089    c-3.143-2.713-6.28-5.464-8.756-8.472c1.265,13.172-11.998,8.386-16.9,20.525C175.419,29.591,178.385,39.661,187.052,44.921z" fill="#2BA9E0"/></g></g></svg>